<svg width="49" height="46" viewBox="0 0 49 46" fill="none" xmlns="http://www.w3.org/2000/svg">
<path d="M47.5391 5.75389C46.9194 4.93391 46.0953 4.48236 45.2188 4.48236H32.5588C31.4637 3.22943 30.2244 2.24942 28.8753 1.57086C27.4784 0.868724 26.0066 0.512695 24.5019 0.512695H24.4981C22.9934 0.512695 21.5216 0.868724 20.1238 1.57086C18.7747 2.24942 17.5353 3.22943 16.4403 4.48236H3.78125C2.90469 4.48236 2.08063 4.93391 1.46094 5.75389C0.84125 6.57387 0.5 7.66429 0.5 8.82417V40.9536C0.5 42.1135 0.84125 43.2039 1.46094 44.0239C2.08063 44.8439 2.90469 45.2954 3.78125 45.2954H45.2188C46.0953 45.2954 46.9194 44.8439 47.5391 44.0239C48.1587 43.2039 48.5 42.1135 48.5 40.9536V25.6419C48.5 24.9584 48.0791 24.4014 47.5625 24.4014C47.0459 24.4014 46.625 24.9584 46.625 25.6419V40.9536C46.6231 41.9783 45.9931 42.8132 45.2188 42.8144H3.78125C3.00688 42.8132 2.37594 41.9783 2.375 40.9536V8.82417C2.37594 7.79951 3.00688 6.96464 3.78125 6.9634H14.6819C13.9005 8.32449 13.2807 9.84276 12.856 11.4551C12.6855 12.102 12.9438 12.8093 13.4326 13.0347C13.5348 13.0819 13.6389 13.1042 13.7413 13.1042C14.1289 13.1042 14.4916 12.7834 14.6264 12.2717C15.1903 10.1313 16.4625 7.74083 17.4275 6.64086C18.8653 5.00213 21.4062 2.99373 24.5 2.99373C27.5938 2.99373 30.1651 4.97881 31.5833 6.65413C32.7598 8.04389 34.2611 11.1403 34.7146 13.9004L33.6206 12.6857C33.2239 12.2452 32.6326 12.3139 32.2998 12.8386C31.967 13.3634 32.0187 14.1459 32.4154 14.5863L35.2881 17.7758C35.4638 17.9708 35.6775 18.0659 35.8902 18.0659C36.1577 18.0659 36.4234 17.9152 36.6088 17.6228L39.0192 13.8216C39.3521 13.2969 39.3003 12.5143 38.9037 12.074C38.507 11.6336 37.9156 11.7021 37.5829 12.2269L36.6071 13.7658C36.2492 11.2993 35.4646 8.96671 34.3175 6.9634H45.2188C45.9931 6.96464 46.6231 7.79951 46.625 8.82417V14.4772C46.625 15.162 47.0459 15.719 47.5625 15.719C48.0791 15.719 48.5 15.162 48.5 14.4772V8.82417C48.5 7.66429 48.1587 6.57387 47.5391 5.75389Z" fill="white"/>
</svg>
