<svg width="41" height="37" viewBox="0 0 41 37" fill="none" xmlns="http://www.w3.org/2000/svg">
<path d="M40.2 16.6944L31 9.2944V4.2544C31.049 3.24428 30.6954 2.25596 30.0168 1.50613C29.3382 0.756299 28.39 0.306156 27.38 0.254395H4.58002C3.57715 0.316314 2.63907 0.77086 1.96898 1.51956C1.29889 2.26826 0.950764 3.25083 1.00002 4.2544V24.2544C0.981457 25.0486 1.19981 25.8304 1.62724 26.5C2.05467 27.1696 2.67182 27.6968 3.40002 28.0144C3.03169 28.9155 2.88814 29.8927 2.98175 30.8616C3.07537 31.8306 3.40334 32.7622 3.93736 33.5761C4.47139 34.39 5.19543 35.0618 6.04702 35.5334C6.89861 36.0051 7.85216 36.2624 8.8254 36.2832C9.79865 36.3041 10.7623 36.0878 11.6334 35.6531C12.5044 35.2184 13.2565 34.5783 13.8249 33.788C14.3933 32.9977 14.7609 32.081 14.8959 31.1169C15.031 30.1529 14.9294 29.1704 14.6 28.2544H27.32C26.9911 29.1607 26.8854 30.1328 27.0119 31.0886C27.1384 32.0444 27.4933 32.9556 28.0467 33.7451C28.6 34.5346 29.3355 35.1791 30.1907 35.6241C31.046 36.0691 31.9959 36.3014 32.96 36.3014C33.9241 36.3014 34.874 36.0691 35.7293 35.6241C36.5846 35.1791 37.32 34.5346 37.8734 33.7451C38.4267 32.9556 38.7817 32.0444 38.9082 31.0886C39.0346 30.1328 38.929 29.1607 38.6 28.2544H39C39.5305 28.2544 40.0392 28.0437 40.4142 27.6686C40.7893 27.2935 41 26.7848 41 26.2544V18.2544C40.9939 17.9507 40.9187 17.6524 40.7801 17.3821C40.6414 17.1118 40.4431 16.8766 40.2 16.6944ZM37 19.2144V24.2544H31V14.4144L37 19.2144ZM11 30.2544C11 30.65 10.8827 31.0366 10.663 31.3655C10.4432 31.6944 10.1308 31.9508 9.76539 32.1022C9.39993 32.2535 8.9978 32.2931 8.60984 32.216C8.22188 32.1388 7.86551 31.9483 7.58581 31.6686C7.3061 31.3889 7.11562 31.0325 7.03845 30.6446C6.96128 30.2566 7.00089 29.8545 7.15226 29.489C7.30364 29.1236 7.55998 28.8112 7.88888 28.5915C8.21778 28.3717 8.60446 28.2544 9.00002 28.2544C9.53045 28.2544 10.0392 28.4651 10.4142 28.8402C10.7893 29.2153 11 29.724 11 30.2544ZM21 24.2544H5.00002V4.2544H27V24.2544H21ZM35 30.2544C35 30.65 34.8827 31.0366 34.663 31.3655C34.4432 31.6944 34.1308 31.9508 33.7654 32.1022C33.3999 32.2535 32.9978 32.2931 32.6098 32.216C32.2219 32.1388 31.8655 31.9483 31.5858 31.6686C31.3061 31.3889 31.1156 31.0325 31.0385 30.6446C30.9613 30.2566 31.0009 29.8545 31.1523 29.489C31.3036 29.1236 31.56 28.8112 31.8889 28.5915C32.2178 28.3717 32.6045 28.2544 33 28.2544C33.5305 28.2544 34.0392 28.4651 34.4142 28.8402C34.7893 29.2153 35 29.724 35 30.2544Z" fill="white"/>
</svg>
