<svg width="48" height="45" viewBox="0 0 48 45" fill="none" xmlns="http://www.w3.org/2000/svg">
<path d="M45.5443 26.5659C44.8267 25.6711 44.0109 24.9714 43.1397 24.4669V3.60429C43.1397 1.66992 41.8775 0.0961914 40.3262 0.0961914H2.81336C1.26202 0.0961914 0 1.66992 0 3.60429V31.6691C0 33.6034 1.26202 35.1771 2.81336 35.1771H16.087L18.6306 39.6714C18.8063 39.9818 19.092 40.1665 19.3968 40.1665H22.1321C22.4649 40.1665 22.7728 39.9465 22.9411 39.5887L23.58 38.2307L24.7605 38.2298L25.2987 39.5327C25.4595 39.922 25.7813 40.1666 26.1324 40.1666H29.2979C29.6346 40.1666 29.9453 39.9416 30.1123 39.5771L30.7319 38.2243L31.84 38.2232C32.2597 39.4252 32.8525 40.5078 33.608 41.4497H33.608C36.75 45.5323 42.4025 45.5326 45.5444 41.4496C48.8185 37.5322 48.8186 30.4832 45.5443 26.5659ZM1.87564 9.45111H41.264V12.9592H1.87564V9.45111ZM2.81336 2.43492H40.3262C40.8433 2.43492 41.264 2.9595 41.264 3.60429V7.11238H1.87564V3.60429C1.87564 2.9595 2.29625 2.43492 2.81336 2.43492ZM1.87564 31.6691V15.2979H41.264V23.6995C37.7097 22.6934 33.5764 25.1089 31.9824 29.4084H18.8939C18.6175 29.4084 18.3551 29.5606 18.1768 29.824L16.1385 32.8384H2.81336C2.29625 32.8384 1.87564 32.3137 1.87564 31.6691ZM44.218 39.7958C41.7744 42.9714 37.3777 42.9712 34.9341 39.7958C34.934 39.7958 34.934 39.7958 34.934 39.7958C34.2201 38.9057 33.6931 37.8551 33.3678 36.6735C33.2377 36.2008 32.881 35.8834 32.4801 35.8838L30.1865 35.8859C29.8501 35.8862 29.5396 36.1111 29.3728 36.4754L28.7534 37.8277H26.7041L26.1657 36.5245C26.0048 36.135 25.6828 35.8903 25.3314 35.8906L23.0418 35.8922C22.7093 35.8924 22.4017 36.1123 22.2334 36.47L21.5948 37.8276H19.8827L17.7573 34.0726L19.3298 31.747H32.5945C32.9799 31.747 33.3261 31.453 33.4673 31.0058C33.7976 29.9589 34.2912 29.0214 34.934 28.2197C37.4938 25.0283 41.6586 25.0281 44.218 28.2197C46.7643 31.2663 46.765 36.7491 44.218 39.7958Z" fill="white"/>
</svg>
